<mxfile host="app.diagrams.net" modified="2024-05-08T14:20:42.846Z" agent="Mozilla/5.0 (Macintosh; Intel Mac OS X 10_15_7) AppleWebKit/537.36 (KHTML, like Gecko) Chrome/124.0.0.0 Safari/537.36 Edg/124.0.0.0" etag="KKEv8qnQWBK1DRqhIkzx" version="24.3.1" type="github">
  <diagram id="prtHgNgQTEPvFCAcTncT" name="Page-1">
    <mxGraphModel dx="1199" dy="638" grid="1" gridSize="10" guides="1" tooltips="1" connect="1" arrows="1" fold="1" page="1" pageScale="1" pageWidth="827" pageHeight="1169" math="0" shadow="0">
      <root>
        <mxCell id="0" />
        <mxCell id="1" parent="0" />
        <mxCell id="kBS4GnMYo1nyq-wL4GCF-5" value="借款申请-走接口" style="swimlane;childLayout=stackLayout;resizeParent=1;resizeParentMax=0;startSize=20;html=1;labelBackgroundColor=none;fillColor=#B2C9AB;strokeColor=#788AA3;fontColor=#46495D;" vertex="1" parent="1">
          <mxGeometry x="160" y="270" width="1110" height="1470" as="geometry" />
        </mxCell>
        <mxCell id="kBS4GnMYo1nyq-wL4GCF-6" value="api-gateway" style="swimlane;startSize=20;html=1;labelBackgroundColor=none;fillColor=#B2C9AB;strokeColor=#788AA3;fontColor=#46495D;" vertex="1" parent="kBS4GnMYo1nyq-wL4GCF-5">
          <mxGeometry y="20" width="180" height="1450" as="geometry" />
        </mxCell>
        <mxCell id="kBS4GnMYo1nyq-wL4GCF-9" value="发起借款申请" style="rounded=0;whiteSpace=wrap;html=1;strokeColor=#788AA3;fontColor=#46495D;fillColor=#B2C9AB;" vertex="1" parent="kBS4GnMYo1nyq-wL4GCF-6">
          <mxGeometry x="30" y="50" width="120" height="60" as="geometry" />
        </mxCell>
        <mxCell id="kBS4GnMYo1nyq-wL4GCF-45" value="放款失败结果推送给渠道" style="whiteSpace=wrap;html=1;fillColor=#e1d5e7;strokeColor=#9673a6;rounded=0;" vertex="1" parent="kBS4GnMYo1nyq-wL4GCF-6">
          <mxGeometry x="30" y="1090" width="120" height="60" as="geometry" />
        </mxCell>
        <mxCell id="kBS4GnMYo1nyq-wL4GCF-7" value="apiopfcore" style="swimlane;startSize=20;html=1;labelBackgroundColor=none;fillColor=#B2C9AB;strokeColor=#788AA3;fontColor=#46495D;" vertex="1" parent="kBS4GnMYo1nyq-wL4GCF-5">
          <mxGeometry x="180" y="20" width="380" height="1450" as="geometry" />
        </mxCell>
        <mxCell id="kBS4GnMYo1nyq-wL4GCF-13" value="" style="edgeStyle=orthogonalEdgeStyle;rounded=0;orthogonalLoop=1;jettySize=auto;html=1;strokeColor=#788AA3;fontColor=#46495D;fillColor=#B2C9AB;" edge="1" parent="kBS4GnMYo1nyq-wL4GCF-7" source="kBS4GnMYo1nyq-wL4GCF-10" target="kBS4GnMYo1nyq-wL4GCF-12">
          <mxGeometry relative="1" as="geometry" />
        </mxCell>
        <mxCell id="kBS4GnMYo1nyq-wL4GCF-10" value="借款申请接口" style="rounded=0;whiteSpace=wrap;html=1;strokeColor=#788AA3;fontColor=#46495D;fillColor=#B2C9AB;" vertex="1" parent="kBS4GnMYo1nyq-wL4GCF-7">
          <mxGeometry x="80" y="50" width="120" height="60" as="geometry" />
        </mxCell>
        <mxCell id="kBS4GnMYo1nyq-wL4GCF-15" value="" style="edgeStyle=orthogonalEdgeStyle;rounded=1;orthogonalLoop=1;jettySize=auto;html=1;strokeColor=#788AA3;fontColor=#46495D;fillColor=#B2C9AB;curved=0;" edge="1" parent="kBS4GnMYo1nyq-wL4GCF-7" source="kBS4GnMYo1nyq-wL4GCF-12" target="kBS4GnMYo1nyq-wL4GCF-14">
          <mxGeometry relative="1" as="geometry" />
        </mxCell>
        <mxCell id="kBS4GnMYo1nyq-wL4GCF-12" value="订单校验" style="rounded=0;whiteSpace=wrap;html=1;strokeColor=#788AA3;fontColor=#46495D;fillColor=#B2C9AB;" vertex="1" parent="kBS4GnMYo1nyq-wL4GCF-7">
          <mxGeometry x="80" y="160" width="120" height="60" as="geometry" />
        </mxCell>
        <mxCell id="kBS4GnMYo1nyq-wL4GCF-26" value="" style="edgeStyle=orthogonalEdgeStyle;curved=0;rounded=1;orthogonalLoop=1;jettySize=auto;html=1;strokeColor=#788AA3;align=center;verticalAlign=middle;fontFamily=Helvetica;fontSize=11;fontColor=#46495D;labelBackgroundColor=default;endArrow=classic;fillColor=#B2C9AB;" edge="1" parent="kBS4GnMYo1nyq-wL4GCF-7" source="kBS4GnMYo1nyq-wL4GCF-14" target="kBS4GnMYo1nyq-wL4GCF-25">
          <mxGeometry relative="1" as="geometry" />
        </mxCell>
        <mxCell id="kBS4GnMYo1nyq-wL4GCF-14" value="用户超过3天还试算失败，则直接把单子改为&lt;span style=&quot;color: rgb(255, 0, 255); font-family: Menlo-Regular, monospace; font-size: 12pt;&quot;&gt;audit_failed&lt;/span&gt;" style="rounded=0;whiteSpace=wrap;html=1;strokeColor=#788AA3;fontColor=#46495D;fillColor=#B2C9AB;" vertex="1" parent="kBS4GnMYo1nyq-wL4GCF-7">
          <mxGeometry x="45" y="275" width="190" height="60" as="geometry" />
        </mxCell>
        <mxCell id="kBS4GnMYo1nyq-wL4GCF-25" value="指定渠道不允许复贷的校验" style="whiteSpace=wrap;html=1;fillColor=#B2C9AB;strokeColor=#788AA3;fontColor=#46495D;rounded=0;" vertex="1" parent="kBS4GnMYo1nyq-wL4GCF-7">
          <mxGeometry x="80" y="390" width="120" height="60" as="geometry" />
        </mxCell>
        <mxCell id="kBS4GnMYo1nyq-wL4GCF-34" value="" style="edgeStyle=orthogonalEdgeStyle;curved=0;rounded=1;orthogonalLoop=1;jettySize=auto;html=1;strokeColor=#9673a6;align=center;verticalAlign=middle;fontFamily=Helvetica;fontSize=11;fontColor=#46495D;labelBackgroundColor=default;endArrow=classic;fillColor=#e1d5e7;" edge="1" parent="kBS4GnMYo1nyq-wL4GCF-7" source="kBS4GnMYo1nyq-wL4GCF-31" target="kBS4GnMYo1nyq-wL4GCF-33">
          <mxGeometry relative="1" as="geometry" />
        </mxCell>
        <mxCell id="kBS4GnMYo1nyq-wL4GCF-31" value="二次给额逻辑校验" style="whiteSpace=wrap;html=1;fillColor=#e1d5e7;strokeColor=#9673a6;rounded=0;" vertex="1" parent="kBS4GnMYo1nyq-wL4GCF-7">
          <mxGeometry x="80" y="690" width="120" height="60" as="geometry" />
        </mxCell>
        <mxCell id="kBS4GnMYo1nyq-wL4GCF-40" value="" style="edgeStyle=orthogonalEdgeStyle;curved=0;rounded=1;orthogonalLoop=1;jettySize=auto;html=1;strokeColor=#9673a6;align=center;verticalAlign=middle;fontFamily=Helvetica;fontSize=11;fontColor=#46495D;labelBackgroundColor=default;endArrow=classic;fillColor=#e1d5e7;" edge="1" parent="kBS4GnMYo1nyq-wL4GCF-7" source="kBS4GnMYo1nyq-wL4GCF-33" target="kBS4GnMYo1nyq-wL4GCF-39">
          <mxGeometry relative="1" as="geometry" />
        </mxCell>
        <mxCell id="kBS4GnMYo1nyq-wL4GCF-33" value="查询风控激活状态" style="whiteSpace=wrap;html=1;fillColor=#e1d5e7;strokeColor=#9673a6;rounded=0;" vertex="1" parent="kBS4GnMYo1nyq-wL4GCF-7">
          <mxGeometry x="80" y="870" width="120" height="60" as="geometry" />
        </mxCell>
        <mxCell id="kBS4GnMYo1nyq-wL4GCF-47" style="edgeStyle=orthogonalEdgeStyle;curved=0;rounded=1;orthogonalLoop=1;jettySize=auto;html=1;strokeColor=#788AA3;align=center;verticalAlign=middle;fontFamily=Helvetica;fontSize=11;fontColor=#46495D;labelBackgroundColor=default;endArrow=classic;fillColor=#B2C9AB;" edge="1" parent="kBS4GnMYo1nyq-wL4GCF-7" source="kBS4GnMYo1nyq-wL4GCF-39" target="kBS4GnMYo1nyq-wL4GCF-43">
          <mxGeometry relative="1" as="geometry" />
        </mxCell>
        <mxCell id="kBS4GnMYo1nyq-wL4GCF-39" value="如果当前状态不是成功，则抛出420042异常码" style="whiteSpace=wrap;html=1;fillColor=#e1d5e7;strokeColor=#9673a6;rounded=0;" vertex="1" parent="kBS4GnMYo1nyq-wL4GCF-7">
          <mxGeometry x="80" y="980" width="120" height="60" as="geometry" />
        </mxCell>
        <mxCell id="kBS4GnMYo1nyq-wL4GCF-49" style="edgeStyle=orthogonalEdgeStyle;curved=0;rounded=1;orthogonalLoop=1;jettySize=auto;html=1;strokeColor=#788AA3;align=center;verticalAlign=middle;fontFamily=Helvetica;fontSize=11;fontColor=#46495D;labelBackgroundColor=default;endArrow=classic;fillColor=#B2C9AB;" edge="1" parent="kBS4GnMYo1nyq-wL4GCF-7" source="kBS4GnMYo1nyq-wL4GCF-43" target="kBS4GnMYo1nyq-wL4GCF-48">
          <mxGeometry relative="1" as="geometry" />
        </mxCell>
        <mxCell id="kBS4GnMYo1nyq-wL4GCF-43" value="检测为该状态码,推送放款失败给渠道" style="whiteSpace=wrap;html=1;fillColor=#e1d5e7;strokeColor=#9673a6;rounded=0;" vertex="1" parent="kBS4GnMYo1nyq-wL4GCF-7">
          <mxGeometry x="80" y="1090" width="120" height="60" as="geometry" />
        </mxCell>
        <mxCell id="kBS4GnMYo1nyq-wL4GCF-48" value="校验是否已绑person，未绑则兜底绑定person" style="whiteSpace=wrap;html=1;fillColor=#B2C9AB;strokeColor=#788AA3;fontColor=#46495D;rounded=0;" vertex="1" parent="kBS4GnMYo1nyq-wL4GCF-7">
          <mxGeometry x="55" y="1210" width="170" height="60" as="geometry" />
        </mxCell>
        <mxCell id="kBS4GnMYo1nyq-wL4GCF-8" value="借款引擎lendtrade" style="swimlane;startSize=20;html=1;labelBackgroundColor=none;fillColor=#B2C9AB;strokeColor=#788AA3;fontColor=#46495D;" vertex="1" parent="kBS4GnMYo1nyq-wL4GCF-5">
          <mxGeometry x="560" y="20" width="330" height="1450" as="geometry" />
        </mxCell>
        <mxCell id="kBS4GnMYo1nyq-wL4GCF-16" value="请求订单校验" style="whiteSpace=wrap;html=1;fillColor=#B2C9AB;strokeColor=#788AA3;fontColor=#46495D;rounded=0;" vertex="1" parent="kBS4GnMYo1nyq-wL4GCF-8">
          <mxGeometry x="-300" y="490" width="120" height="60" as="geometry" />
        </mxCell>
        <mxCell id="kBS4GnMYo1nyq-wL4GCF-22" value="" style="edgeStyle=orthogonalEdgeStyle;curved=0;rounded=1;orthogonalLoop=1;jettySize=auto;html=1;strokeColor=#788AA3;align=center;verticalAlign=middle;fontFamily=Helvetica;fontSize=11;fontColor=#46495D;labelBackgroundColor=default;endArrow=classic;fillColor=#B2C9AB;" edge="1" parent="kBS4GnMYo1nyq-wL4GCF-8" source="kBS4GnMYo1nyq-wL4GCF-18" target="kBS4GnMYo1nyq-wL4GCF-21">
          <mxGeometry relative="1" as="geometry" />
        </mxCell>
        <mxCell id="kBS4GnMYo1nyq-wL4GCF-18" value="订单校验接口" style="whiteSpace=wrap;html=1;fillColor=#B2C9AB;strokeColor=#788AA3;fontColor=#46495D;rounded=0;" vertex="1" parent="kBS4GnMYo1nyq-wL4GCF-8">
          <mxGeometry x="50" y="490" width="120" height="60" as="geometry" />
        </mxCell>
        <mxCell id="kBS4GnMYo1nyq-wL4GCF-30" value="" style="edgeStyle=orthogonalEdgeStyle;curved=0;rounded=1;orthogonalLoop=1;jettySize=auto;html=1;strokeColor=#788AA3;align=center;verticalAlign=middle;fontFamily=Helvetica;fontSize=11;fontColor=#46495D;labelBackgroundColor=default;endArrow=classic;fillColor=#B2C9AB;" edge="1" parent="kBS4GnMYo1nyq-wL4GCF-8" source="kBS4GnMYo1nyq-wL4GCF-21" target="kBS4GnMYo1nyq-wL4GCF-29">
          <mxGeometry relative="1" as="geometry" />
        </mxCell>
        <mxCell id="kBS4GnMYo1nyq-wL4GCF-21" value="金额一致校验&lt;div&gt;期数一致校验&lt;/div&gt;&lt;div&gt;已有订单重复下单校验&lt;/div&gt;&lt;div&gt;未绑卡校验&lt;/div&gt;&lt;div&gt;未签支付协议校验&lt;/div&gt;" style="whiteSpace=wrap;html=1;fillColor=#B2C9AB;strokeColor=#788AA3;fontColor=#46495D;rounded=0;" vertex="1" parent="kBS4GnMYo1nyq-wL4GCF-8">
          <mxGeometry x="45" y="590" width="130" height="140" as="geometry" />
        </mxCell>
        <mxCell id="kBS4GnMYo1nyq-wL4GCF-19" style="edgeStyle=orthogonalEdgeStyle;curved=0;rounded=1;orthogonalLoop=1;jettySize=auto;html=1;entryX=0;entryY=0.5;entryDx=0;entryDy=0;strokeColor=#788AA3;align=center;verticalAlign=middle;fontFamily=Helvetica;fontSize=11;fontColor=#46495D;labelBackgroundColor=default;endArrow=classic;fillColor=#B2C9AB;" edge="1" parent="kBS4GnMYo1nyq-wL4GCF-8" source="kBS4GnMYo1nyq-wL4GCF-16" target="kBS4GnMYo1nyq-wL4GCF-18">
          <mxGeometry relative="1" as="geometry" />
        </mxCell>
        <mxCell id="kBS4GnMYo1nyq-wL4GCF-20" value="&lt;span style=&quot;color: rgba(0, 0, 0, 0.65); font-family: Avenir, Helvetica, Arial, sans-serif; font-size: 14px; text-align: start; text-wrap: wrap; background-color: rgba(73, 204, 144, 0.1);&quot;&gt;/lend/trade/v1/order/verify&lt;/span&gt;" style="edgeLabel;html=1;align=center;verticalAlign=middle;resizable=0;points=[];strokeColor=#788AA3;fontFamily=Helvetica;fontSize=11;fontColor=#46495D;labelBackgroundColor=default;fillColor=#B2C9AB;" vertex="1" connectable="0" parent="kBS4GnMYo1nyq-wL4GCF-19">
          <mxGeometry x="-0.0045" y="-1" relative="1" as="geometry">
            <mxPoint as="offset" />
          </mxGeometry>
        </mxCell>
        <mxCell id="kBS4GnMYo1nyq-wL4GCF-29" value="移除合同不存在的校验，因为现在是在借款后才生成合同" style="whiteSpace=wrap;html=1;fillColor=#B2C9AB;strokeColor=#788AA3;fontColor=#46495D;rounded=0;" vertex="1" parent="kBS4GnMYo1nyq-wL4GCF-8">
          <mxGeometry x="50" y="770" width="120" height="60" as="geometry" />
        </mxCell>
        <mxCell id="kBS4GnMYo1nyq-wL4GCF-23" value="这里需要提供不同的code码和对应的校验失败的原因文案，需要返回给渠道" style="whiteSpace=wrap;html=1;fillColor=#f8cecc;strokeColor=#b85450;rounded=0;" vertex="1" parent="kBS4GnMYo1nyq-wL4GCF-8">
          <mxGeometry x="190" y="630" width="130" height="60" as="geometry" />
        </mxCell>
        <mxCell id="kBS4GnMYo1nyq-wL4GCF-28" style="edgeStyle=orthogonalEdgeStyle;curved=0;rounded=1;orthogonalLoop=1;jettySize=auto;html=1;entryX=0;entryY=0.5;entryDx=0;entryDy=0;strokeColor=#788AA3;align=center;verticalAlign=middle;fontFamily=Helvetica;fontSize=11;fontColor=#46495D;labelBackgroundColor=default;endArrow=classic;fillColor=#B2C9AB;" edge="1" parent="kBS4GnMYo1nyq-wL4GCF-8" source="kBS4GnMYo1nyq-wL4GCF-21" target="kBS4GnMYo1nyq-wL4GCF-23">
          <mxGeometry relative="1" as="geometry" />
        </mxCell>
        <mxCell id="kBS4GnMYo1nyq-wL4GCF-36" value="风控系统" style="swimlane;startSize=20;html=1;labelBackgroundColor=none;fillColor=#B2C9AB;strokeColor=#788AA3;fontColor=#46495D;" vertex="1" parent="kBS4GnMYo1nyq-wL4GCF-5">
          <mxGeometry x="890" y="20" width="220" height="1450" as="geometry" />
        </mxCell>
        <mxCell id="kBS4GnMYo1nyq-wL4GCF-35" value="风控激活状态查询接口" style="whiteSpace=wrap;html=1;fillColor=#B2C9AB;strokeColor=#788AA3;fontColor=#46495D;rounded=0;" vertex="1" parent="kBS4GnMYo1nyq-wL4GCF-36">
          <mxGeometry x="50" y="870" width="120" height="60" as="geometry" />
        </mxCell>
        <mxCell id="kBS4GnMYo1nyq-wL4GCF-11" style="edgeStyle=orthogonalEdgeStyle;rounded=0;orthogonalLoop=1;jettySize=auto;html=1;entryX=0;entryY=0.5;entryDx=0;entryDy=0;strokeColor=#788AA3;fontColor=#46495D;fillColor=#B2C9AB;" edge="1" parent="kBS4GnMYo1nyq-wL4GCF-5" source="kBS4GnMYo1nyq-wL4GCF-9" target="kBS4GnMYo1nyq-wL4GCF-10">
          <mxGeometry relative="1" as="geometry" />
        </mxCell>
        <mxCell id="kBS4GnMYo1nyq-wL4GCF-27" style="edgeStyle=orthogonalEdgeStyle;curved=0;rounded=1;orthogonalLoop=1;jettySize=auto;html=1;entryX=0.5;entryY=0;entryDx=0;entryDy=0;strokeColor=#788AA3;align=center;verticalAlign=middle;fontFamily=Helvetica;fontSize=11;fontColor=#46495D;labelBackgroundColor=default;endArrow=classic;fillColor=#B2C9AB;" edge="1" parent="kBS4GnMYo1nyq-wL4GCF-5" source="kBS4GnMYo1nyq-wL4GCF-25" target="kBS4GnMYo1nyq-wL4GCF-16">
          <mxGeometry relative="1" as="geometry" />
        </mxCell>
        <mxCell id="kBS4GnMYo1nyq-wL4GCF-32" value="" style="edgeStyle=orthogonalEdgeStyle;curved=0;rounded=1;orthogonalLoop=1;jettySize=auto;html=1;strokeColor=#788AA3;align=center;verticalAlign=middle;fontFamily=Helvetica;fontSize=11;fontColor=#46495D;labelBackgroundColor=default;endArrow=classic;fillColor=#B2C9AB;" edge="1" parent="kBS4GnMYo1nyq-wL4GCF-5" source="kBS4GnMYo1nyq-wL4GCF-16" target="kBS4GnMYo1nyq-wL4GCF-31">
          <mxGeometry relative="1" as="geometry" />
        </mxCell>
        <mxCell id="kBS4GnMYo1nyq-wL4GCF-37" style="edgeStyle=orthogonalEdgeStyle;curved=0;rounded=1;orthogonalLoop=1;jettySize=auto;html=1;entryX=0;entryY=0.5;entryDx=0;entryDy=0;strokeColor=#788AA3;align=center;verticalAlign=middle;fontFamily=Helvetica;fontSize=11;fontColor=#46495D;labelBackgroundColor=default;endArrow=classic;fillColor=#B2C9AB;" edge="1" parent="kBS4GnMYo1nyq-wL4GCF-5" source="kBS4GnMYo1nyq-wL4GCF-33" target="kBS4GnMYo1nyq-wL4GCF-35">
          <mxGeometry relative="1" as="geometry" />
        </mxCell>
        <mxCell id="kBS4GnMYo1nyq-wL4GCF-38" value="&lt;article data-identifier-application__slash__x-doc-key=&quot;4jKqmVR7B19NOw19&quot; data-identifier-application__slash__x-cangjie-fragment=&quot;JTdCJTIya2xhc3MlMjIlM0ElMjJkb2N1bWVudCUyMiUyQyUyMmRhdGElMjIlM0ElN0IlN0QlMkMlMjJub2RlcyUyMiUzQSU1QiU3QiUyMmtsYXNzJTIyJTNBJTIyYmxvY2slMjIlMkMlMjJ0eXBlJTIyJTNBJTIycGFyYWdyYXBoJTIyJTJDJTIyZGF0YSUyMiUzQSU3QiUyMnV1aWQlMjIlM0ElMjJsc3I4M202bHpobG4zajJqMXJoJTIyJTdEJTJDJTIybm9kZXMlMjIlM0ElNUIlN0IlMjJrbGFzcyUyMiUzQSUyMnRleHQlMjIlMkMlMjJsZWF2ZXMlMjIlM0ElNUIlN0IlMjJrbGFzcyUyMiUzQSUyMmxlYWYlMjIlMkMlMjJ0ZXh0JTIyJTNBJTIyY3JlZGl0JTJGdjIlMkZzdGF0dXMtcXVlcnklMjIlMkMlMjJtYXJrcyUyMiUzQSU1QiU1RCU3RCU1RCU3RCU1RCU3RCU1RCU3RA==&quot; data-clipboard-cangjie=&quot;[&amp;quot;root&amp;quot;,{},[&amp;quot;p&amp;quot;,{&amp;quot;uuid&amp;quot;:&amp;quot;lsr83m6lzhln3j2j1rh&amp;quot;},[&amp;quot;span&amp;quot;,{&amp;quot;data-type&amp;quot;:&amp;quot;text&amp;quot;},[&amp;quot;span&amp;quot;,{&amp;quot;data-type&amp;quot;:&amp;quot;leaf&amp;quot;},&amp;quot;credit/v2/status-query&amp;quot;]]]]&quot; class=&quot;4ever-article&quot;&gt;&lt;p style=&quot;text-align: left; margin-left: 0px; margin-top: 0px; margin-bottom: 0px;&quot;&gt;&lt;span data-type=&quot;text&quot;&gt;credit/v2/status-query&lt;/span&gt;&lt;/p&gt;&lt;/article&gt;" style="edgeLabel;html=1;align=center;verticalAlign=middle;resizable=0;points=[];strokeColor=#788AA3;fontFamily=Helvetica;fontSize=11;fontColor=#46495D;labelBackgroundColor=default;fillColor=#B2C9AB;" vertex="1" connectable="0" parent="kBS4GnMYo1nyq-wL4GCF-37">
          <mxGeometry x="-0.0179" relative="1" as="geometry">
            <mxPoint as="offset" />
          </mxGeometry>
        </mxCell>
        <mxCell id="kBS4GnMYo1nyq-wL4GCF-46" value="" style="edgeStyle=orthogonalEdgeStyle;curved=0;rounded=1;orthogonalLoop=1;jettySize=auto;html=1;strokeColor=#9673a6;align=center;verticalAlign=middle;fontFamily=Helvetica;fontSize=11;fontColor=#46495D;labelBackgroundColor=default;endArrow=classic;fillColor=#e1d5e7;" edge="1" parent="kBS4GnMYo1nyq-wL4GCF-5" source="kBS4GnMYo1nyq-wL4GCF-43" target="kBS4GnMYo1nyq-wL4GCF-45">
          <mxGeometry relative="1" as="geometry" />
        </mxCell>
      </root>
    </mxGraphModel>
  </diagram>
</mxfile>
